<?xml version="1.0" encoding="UTF-8"?>
<svg xmlns="http://www.w3.org/2000/svg" xmlns:xlink="http://www.w3.org/1999/xlink" viewBox="0 0 8464.99 4000.93">
  <defs>
    <style>
      .cls-1 {
        fill: #2c3e50;
      }

      .cls-1, .cls-2, .cls-3, .cls-4, .cls-5, .cls-6, .cls-7, .cls-8, .cls-9, .cls-10, .cls-11, .cls-12 {
        stroke-width: 0px;
      }

      .cls-2, .cls-4, .cls-10, .cls-11, .cls-12 {
        fill-rule: evenodd;
      }

      .cls-2, .cls-6 {
        fill: #1a1a1a;
      }

      .cls-3 {
        fill: #f2f2f2;
        opacity: .2;
      }

      .cls-7 {
        fill: none;
      }

      .cls-8, .cls-10 {
        fill: #ccc;
      }

      .cls-13 {
        fill: #999;
        stroke: #000;
        stroke-miterlimit: 10;
        stroke-width: 19px;
      }

      .cls-9, .cls-11 {
        fill: #fff;
      }

      .cls-14 {
        clip-path: url(#clippath);
      }

      .cls-12 {
        fill: #b3b3b3;
      }
    </style>
    <clipPath id="clippath">
      <path class="cls-7" d="M2326.12,1116.51s9.04-106.67,68.94-126.16c59.91-19.49,594.65-86.35,594.65-86.35,0,0,129.8-18.49,168.86-1.93,39.06,16.55,152.38,48.19,147.55,119.87-4.83,71.69-15.03,242.28-44.65,297.19s-135.35,99.2-216.27,108.41c-80.92,9.21-322.68,14.44-426.53,26.14-103.85,11.7-181.3,38.05-233.88,24.22-52.58-13.84-86.41-65.21-84.72-116,1.7-50.79,26.05-245.37,26.05-245.37Z"/>
    </clipPath>
  </defs>
  <g id="Layer_29" data-name="Layer 29">
    <rect class="cls-9" x="1231.46" width="4000.93" height="4000.93"/>
  </g>
  <g id="Layer_31" data-name="Layer 31">
    <rect class="cls-5" x="2297.56" y="516.69" width="1796.56" height="2891.66" rx="83.27" ry="83.27"/>
  </g>
  <g id="Layer_39" data-name="Layer 39">
    <g>
      <path class="cls-9" d="M2905.51,2465.77l-171.12,264.04,209.76-35.88,7.82,142.6-374.45-12.88,183.08-347.31-154.56,11.5-18.4-101.2,318.32-13.8v92.92h-.46Z"/>
      <path class="cls-9" d="M2982.78,2382.05l309.12-4.6-18.4,110.4-166.98-18.4,3.68,97.98,97.98-19.32,20.24,97.98-115.92,6.44,3.68,97.98,156.4-32.2,23,119.6-322.92,13.8,10.12-469.67Z"/>
      <path class="cls-9" d="M3586.77,2730.27l-21.16-339.02,130.64-15.18,15.18,447.59-167.9,23-.46.46v-.46h-1.38l.92-1.84-91.54-293.02,11.96,276.46-146.74,23,10.12-469.21,165.14,9.2,95.22,339.02Z"/>
      <path class="cls-9" d="M2393.45,2915.87l162.63-2.42-9.68,58.08-87.85-9.68,1.94,51.55,51.55-10.16,10.65,51.55-60.98,3.39,1.94,51.55,82.28-16.94,12.1,62.92-169.89,7.26,5.32-247.09Z"/>
      <path class="cls-9" d="M2640.77,2920.71l-6.53,181.02,79.62-21.3,4.11,75.02-149.07-7.26,2.42-234.74,69.46,7.26Z"/>
      <path class="cls-9" d="M2734.18,2915.87l162.63-2.42-9.68,58.08-87.85-9.68,1.94,51.55,51.55-10.16,10.65,51.55-60.98,3.39,1.94,51.55,82.28-16.94,12.1,62.92-169.89,7.26,5.32-247.09Z"/>
      <path class="cls-9" d="M2917.13,3153.28l-8.71-234.74,38.96-4.84c7.74-.97,11.86-2.42,19.6-2.42,13.79,0,21.78,1.21,35.57,1.94l71.15,3.87,32.19,56.87-7.74,54.21-110.6,62.44,6.05,53.24-76.47,9.44ZM2982.47,3045.58v-.73l60.02-44.53-11.62-36.78-58.08-2.66,9.68,84.7Z"/>
      <path class="cls-9" d="M3122.1,3162.71l-5.32-246.84,77.2,12.1-4.36,120.03,49.61-7.99-11.13-124.15h74.78l11.38,233.05-63.89,13.79-7.02-77.92-55.18,2.9-2.18,61.23-63.89,13.79Z"/>
      <path class="cls-9" d="M3323.93,3133.19l92.2-218.77c13.55.48,31.46,0,44.53,1.45,11.62,1.45,27.59,5.81,39.45,8.23l76.96,216.35-81.8,7.74-11.37-50.34-63.65-10.41-19.12,70.42-77.2-24.68ZM3430.41,3049.46l43.08,2.18-19.84-88.33-23.23,86.15Z"/>
      <path class="cls-9" d="M3729.04,3099.07l-11.13-178.36,68.73-7.99,7.99,235.47-88.33,12.1-.24.24v-.24h-.73l.48-.97-48.16-154.16,6.29,145.45-77.2,12.1,5.32-246.84,86.88,4.84,50.09,178.36Z"/>
      <path class="cls-9" d="M3803.08,2911.03l179.57,7.26-9.68,53.24-48.88-3.39,6.54,182.47-77.2,12.1,4.36-199.17-54.69-3.63v-48.89Z"/>
    </g>
    <path class="cls-5" d="M3991.04,1827.02c-12.93,102.06-10.14,227.97,50.2,315.07,13.32,19.04,29.49,36.3,47.94,50.46,3.45,2.63,7.55,5.79,11.23,8.05,53.41,33.59,121.92,5.15,172.86-21.7,19.83-10.7,39.07-22.65,57.68-35.37,0,0,9.4,9.15,9.4,9.15-4.67,6.64-9.55,12.7-14.78,18.82-26.33,30.5-57.6,57.08-93.19,76.46-61.47,33.11-128.04,37.48-186.59-5.84-51.59-35.83-88.99-89.94-109.37-148.85-29.43-84.21-30.39-181.22-11.91-267.76.87-4.25,2.04-8.47,3.09-12.66,0,0,63.44,14.17,63.44,14.17h0Z"/>
    <path class="cls-6" d="M4371.65,2088.56s-146.96,67.15-79.83,112.7c67.13,45.55,140.87-137.8,140.87-137.8l-61.04,25.1Z"/>
  </g>
  <g id="Layer_26" data-name="Layer 26">
    <path class="cls-6" d="M2351.9,1697.71c-13.98,8.24-28.59,14.3-43.37,18.16-25.01,6.54-50.52,6.75-74.25.62-24.14-6.23-46.31-18.95-64.2-38.17-16.05-17.23-28.55-39.64-35.75-67.18-23.17-88.61-106.05-117.13-106.28-117.22l-2.74-1.17c-46.96-23.78-75.53-64.17-87.04-109.68-5.84-23.1-7.24-47.5-4.37-71.59,2.86-23.95,9.97-47.74,21.14-69.81,24.39-48.16,68.02-87.97,129-103.41,24.51-6.21,50.84-9.59,77.78-13.04,51.91-6.66,106.34-13.64,151.18-44.89,54.59-38.03,101-80.38,140.9-116.8,57.62-52.58,166.46-137.78,235.85-171.27,17.7-8.54,35.85-15.85,54.34-21.95,0,0,114.71-31.02,207.45-26.86,104.48,4.7,186.65,63.59,251.22,89.32,64.57,25.73,207.15,119.04,330.13,112.77,91.59-4.67,189.8-10.19,272.58,10.36,87.54,21.74,157.76,67.1,185.72,150.57,67.79,202.39-51.65,276.75-176.59,354.54-44.88,27.94-90.55,56.38-125.71,91.21-130.61,129.39-215.14,115.07-254.69,94.16-36.96,56.23-90.73,102.96-164,135.57-75.06,33.4-170.64,51.9-289.62,50.38-226.52,307.9-568.1,367.33-569.28,367.55l-12.89,2.34-9.19-9.18c-59.72-59.72-54.13-130.5-54.12-130.7l1.05-12.59,10.86-6.65c102.2-62.56,168.17-143.75,210.4-227.28-124.04-15.73-182.4-58.71-205.53-118.11"/>
  </g>
  <g id="Layer_25" data-name="Layer 25">
    <path class="cls-9" d="M3440.06,1137.88c38.86,96.09,60.31,195.71,58.02,288.38-1.56,63.26-14.14,123.35-39.67,177.07,24.25,12.85,84.89,22.95,195.32-86.46,39.37-39.01,87.36-68.89,134.51-98.24,107.85-67.15,210.95-131.34,155.69-296.33-3.78-11.3-8.67-21.72-14.52-31.32-88.92-82.3-271.25-22.56-399.99,19.63-33.61,11.02-63.75,20.9-89.35,27.26"/>
  </g>
  <g id="Layer_24" data-name="Layer 24">
    <path class="cls-9" d="M2409.26,1188.31c-29.61,7.84-72.3,12.46-131.79,5.34-114.38-13.69-186.03-3.43-199.16-1.25-36.38,14.08-62.93,40.57-78.72,71.75-8.47,16.73-13.88,34.87-16.07,53.2-2.17,18.17-1.14,36.45,3.2,53.62,8.04,31.78,27.73,59.96,59.95,76.68,13.47,5.13,108.06,44.54,135.91,151,4.98,19.02,13.37,34.24,24.03,45.69,11.22,12.06,25.09,20.03,40.17,23.92,15.48,4,32.4,3.78,49.25-.62,15.13-3.95,30.2-11.34,44.17-22.13-1.6-17.57-1.38-36.05.12-55.26,3.16-40.35,12.39-82.99,21.9-126.95,5.01-23.19,10.12-46.79,13.94-67.63,9.52-51.95,13.94-86.94,17.6-115.95,4.18-33.15,7.42-58.87,15.5-91.4"/>
  </g>
  <g id="Layer_23" data-name="Layer 23">
    <path class="cls-8" d="M2297.56,1145.54c85.39,8,119.51-9.89,129.64-17.24,6.23-18.36,13.85-39.24,23.27-63.69,6.8-17.63,14.19-34.47,22.12-50.55-37.67,34.23-80.78,72.28-131.06,107.31-14.29,9.95-28.99,17.83-43.98,24.18"/>
  </g>
  <g id="Layer_22" data-name="Layer 22">
    <path class="cls-9" d="M3025.62,1533.76c19.25,47.3,96.55,86.64,146.22,74.92-19.38,29.9-52.56,38.85-83.15,33.14-21.72,51.3-46.64,98.01-73.79,140.55,95.73-2.07,173.35-18.5,234.99-45.93,68.5-30.48,117.23-74.65,149.11-127.68,32.15-53.47,47.6-116.36,49.26-183.67,2.25-90.89-20.49-189.72-61.17-284.76-71.36-8.59-156.16-57.89-169.03-118.39.24.31,102.26,93.81,208.25,67.99,23.12-5.63,53.59-15.62,87.65-26.78,78.23-25.64,174.62-57.22,263.73-62.39-73.27-15.22-159.33-13.77-239.91-5.58-154.42,15.69-240.66-37.44-331.95-93.67-49.2-30.31-100-61.6-164.17-81.76-110.96-34.85-229.09-31.35-330.21,17.45-90.35,43.6-167.58,123.72-214.49,245.39-41.8,108.43-46.12,142.6-53.78,203.37-3.78,29.92-8.34,66.02-17.99,118.69-4.6,25.09-9.41,47.31-14.14,69.19-9.15,42.32-18.04,83.36-20.92,120.12-6.91,88.33,24.11,156.84,188.9,174.06,74.58-185.83,44.07-367.91,43.94-368.72,109.95,168.91.06,525.88-237.69,678.62,1.44,15.03,7.42,42.7,30.52,70.19,75.71-16.96,456.63-121,627.71-527.8-22.72-19.77-34.04-50.67-17.9-86.55"/>
  </g>
  <g id="Layer_20" data-name="Layer 20">
    <path class="cls-10" d="M3929.4,1090.99c-88.92-82.3-271.25-22.56-399.99,19.63-33.61,11.02-63.75,20.9-89.35,27.26,38.86,96.09,60.31,195.71,58.02,288.38-1.56,63.26-14.14,123.35-39.67,177.07,13.66,7.25,38.88,13.61,78.05-1.79,55.88-121.67,29.99-201.48,53.03-351.85,29.69-193.79,339.91-158.71,339.91-158.71"/>
  </g>
  <g id="Layer_19" data-name="Layer 19">
    <path class="cls-10" d="M2277.47,1193.64c-114.38-13.69-186.03-3.43-199.16-1.25,0,0,215.55,22.91,217.11,185.45,1.56,162.54,8.29,216.48,44.78,267.65-1.6-17.57-1.38-36.05.12-55.26,3.16-40.35,12.39-82.99,21.9-126.95,5.01-23.19,10.12-46.79,13.94-67.63,9.52-51.95,13.94-86.94,17.6-115.95,4.18-33.15,7.42-58.87,15.5-91.4-29.61,7.84-72.3,12.46-131.79,5.34"/>
  </g>
  <g id="Layer_18" data-name="Layer 18">
    <path class="cls-10" d="M3387.09,1140.33c-71.36-8.59-156.16-57.89-169.03-118.39,10.18,147.01,194.27,172.96,174.79,393.56-13.75,154.97-119.53,319.29-304.16,226.31-21.72,51.3-46.64,98.01-73.79,140.55,95.73-2.07,173.35-18.5,234.99-45.93,68.5-30.48,117.23-74.65,149.11-127.68,32.15-53.47,47.6-116.36,49.26-183.67,2.25-90.89-20.49-189.72-61.17-284.76"/>
  </g>
  <g id="Layer_17" data-name="Layer 17">
    <path class="cls-10" d="M2411.06,1473.83c-9.15,42.32-18.04,83.36-20.92,120.12-6.91,88.33,24.11,156.84,188.9,174.06,74.58-185.83,44.07-367.91,43.94-368.72,6.37,227.3-157.13,252.12-172.94,144.2-12.42-84.68,28.11-231.76,12.48-361.19-11.28,39.74-14.69,66.8-19.34,103.64-3.78,29.92-8.34,66.02-17.99,118.69-4.6,25.09-9.41,47.31-14.14,69.19"/>
  </g>
  <g id="Layer_16" data-name="Layer 16">
    <path class="cls-10" d="M2385.28,2077.92c1.44,15.03,7.42,42.7,30.52,70.19,75.71-16.96,456.63-121,627.71-527.8-222.45,369.09-658.23,457.61-658.23,457.61"/>
  </g>
  <g id="Layer_15" data-name="Layer 15">
    <path class="cls-4" d="M2563.36,1339.79c34.09,0,61.73,36.04,61.73,80.49s-27.64,80.49-61.73,80.49-61.73-36.04-61.73-80.49,27.64-80.49,61.73-80.49"/>
  </g>
  <g id="Layer_14" data-name="Layer 14">
    <path class="cls-4" d="M3004.08,1316.35c34.09,0,61.73,36.04,61.73,80.49s-27.64,80.49-61.73,80.49-61.74-36.04-61.74-80.49,27.64-80.49,61.74-80.49"/>
  </g>
  <g id="Layer_13" data-name="Layer 13">
    <path class="cls-11" d="M2990.02,1339.5c14.69,0,26.6,15.53,26.6,34.68s-11.91,34.69-26.6,34.69-26.61-15.53-26.61-34.69,11.91-34.68,26.61-34.68"/>
  </g>
  <g id="Layer_4" data-name="Layer 4">
    <path class="cls-1" d="M7579.4,37.13h-61.44l-38.8,65.22-38.54-65.22h-67.1l71.14,119.38v69.25h63.6v-68.44l71.14-120.19ZM7303.47,37.13v85.69l-71.68-85.69h-52.28v188.63h61.98v-85.69l71.68,85.69h52.28V37.13h-61.98ZM7036.69,147.08l18.32-47.43,18.33,47.43h-36.65ZM7103.52,225.77h65.75l-82.46-188.63h-62.52l-82.46,188.63h64.67l12.66-32.87h71.68l12.67,32.87ZM6860.99,130.37h-23.17v-44.19h23.17c17.52,0,25.87,8.36,25.87,22.1s-8.35,22.1-25.87,22.1ZM6865.03,37.13h-90.81v188.63h63.6v-46.35h27.22c52.55,0,85.96-27.49,85.96-71.14s-33.42-71.14-85.96-71.14ZM6743.5,225.77l-.54-188.63h-52.28l-59.82,100.52-61.44-100.52h-52.28v188.63h57.93v-83l40.96,66.02h28.03l40.96-68.98.54,85.96h57.93ZM6387.53,178.61c-23.44,0-42.31-17.78-42.31-47.16s18.86-47.16,42.31-47.16,42.31,17.78,42.31,47.16-18.86,47.16-42.31,47.16ZM6387.53,230.08c61.44,0,106.44-41.5,106.44-98.63s-45.01-98.63-106.44-98.63-106.44,41.5-106.44,98.63,45,98.63,106.44,98.63ZM6189.74,230.08c36.91,0,66.02-13.47,84.61-37.72l-40.15-35.84c-11.04,14.01-24.24,22.09-41.22,22.09-26.41,0-44.19-18.32-44.19-47.16s17.78-47.16,44.19-47.16c16.98,0,30.18,8.09,41.22,22.1l40.15-35.84c-18.59-24.26-47.69-37.73-84.61-37.73-60.63,0-105.09,40.69-105.09,98.63s44.46,98.63,105.09,98.63Z"/>
  </g>
  <g id="Layer_3" data-name="Layer 3">
    <path class="cls-1" d="M8358.54,196.39v-52.01h91.08v-28.83h-91.08v-49.05h102.67v-29.37h-137.7v188.63h141.47v-29.37h-106.44ZM8272.72,225.77l-.27-188.63h-28.84l-73.61,125.04-75-125.04h-28.84v188.63h33.42v-123.42l62.02,101.86h15.67l62.02-103.48.27,125.04h33.14ZM7904.21,154.62l35.3-82.46,35.57,82.46h-70.87ZM8005.54,225.77h36.65l-85.16-188.63h-34.49l-84.89,188.63h36.11l18.59-43.65h94.32l18.86,43.65ZM7778.91,37.13v127.73l-104.02-127.73h-28.83v188.63h34.76v-127.73l104.01,127.73h28.84V37.13h-34.76Z"/>
  </g>
  <g id="Layer_36" data-name="Layer 36">
    <path class="cls-6" d="M3488.67,2176.65c0,142.44,36.62,250.39-205.11,248.29-338.03-2.95-321.03-18.53-320.88-229.76.07-94.91,41.94-275.53,123.11-366.87,40.64-45.73,137.25-59.29,197.77-59.29s128.79,7.76,165.39,51.88c73.04,88.05,39.71,260.87,39.71,355.75Z"/>
    <path class="cls-8" d="M3448.41,2164.28c0,120.32,30.93,211.52-173.26,209.74-285.55-2.49-271.19-15.65-271.06-194.09.06-80.18,35.43-232.75,104-309.91,34.33-38.63,115.94-50.09,167.07-50.09s108.8,6.55,139.72,43.83c61.7,74.38,33.55,220.37,33.55,300.52Z"/>
    <path class="cls-2" d="M3448.41,2296.19c0,77.85-95.22,98.96-216.76,98.96s-223.38-21.1-223.38-98.96c0-43,98.53-77.85,220.07-77.85s220.07,34.86,220.07,77.85Z"/>
    <path class="cls-12" d="M3351.88,1827.69s51.84,235.76,0,404.06c0,0,94.35,40.53,96.53,64.44,3.51,38.63,13.85-305.72.59-351.63-13.26-45.91,2.69-84.06-97.12-116.87Z"/>
  </g>
  <g id="Layer_2" data-name="Layer 2">
    <path class="cls-1" d="M8250.22,377.25v-29.82h52.23v-16.53h-52.23v-28.12h58.87v-16.85h-78.96v108.17h81.12v-16.84h-61.04ZM8085.23,324.4c0,13.6-9.11,21.63-26.73,21.63h-23.49v-43.11h23.49c17.62,0,26.73,7.88,26.73,21.48ZM8107.32,394.09l-24.88-35.54c14.68-5.72,23.03-17.77,23.03-34.15,0-23.95-17.62-38.48-46.05-38.48h-44.51v108.17h20.09v-31.52h24.42c1.39,0,2.78,0,4.17-.15l22.1,31.67h21.63ZM7829.22,377.25v-29.82h52.23v-16.53h-52.23v-28.12h58.87v-16.85h-78.96v108.17h81.12v-16.84h-61.03ZM7657.74,285.93v44.66h-55.94v-44.66h-20.09v108.17h20.09v-46.36h55.94v46.36h20.09v-108.17h-20.09ZM7387.83,285.93v73.25l-59.65-73.25h-16.54v108.17h19.93v-73.25l59.65,73.25h16.53v-108.17h-19.93ZM7116.53,353.3l20.24-47.28,20.4,47.28h-40.64ZM7174.63,394.09h21.01l-48.83-108.17h-19.78l-48.67,108.17h20.7l10.67-25.03h54.08l10.82,25.03ZM6945.97,372.46c-6.96,4.02-14.53,5.56-22.25,5.56-22.87,0-39.09-16.07-39.09-38.01s16.22-38.01,39.24-38.01c11.59,0,21.33,3.86,29.83,12.36l12.67-12.36c-10.2-11.59-25.34-17.62-43.42-17.62-33.84,0-58.56,23.34-58.56,55.63s24.72,55.63,58.26,55.63c15.29,0,31.06-4.63,42.34-13.75v-43.11h-19.01v33.68ZM6690.28,378.02c-21.79,0-38.01-15.92-38.01-38.01s16.22-38.01,38.01-38.01,38.01,15.92,38.01,38.01-16.22,38.01-38.01,38.01ZM6690.28,395.64c33.53,0,58.26-23.49,58.26-55.63s-24.72-55.63-58.26-55.63-58.26,23.64-58.26,55.63,24.72,55.63,58.26,55.63ZM6446.94,394.09h76.65v-17h-56.56v-91.17h-20.09v108.17ZM6281.03,395.64c29.67,0,43.73-14.83,43.73-32.17,0-39.66-64.13-24.67-64.13-47.7,0-8.21,6.8-14.7,23.49-14.7,9.42,0,20.09,2.78,29.82,8.5l6.33-15.61c-9.42-6.18-23.02-9.58-36-9.58-29.67,0-43.57,14.83-43.57,32.32,0,40.12,64.28,24.85,64.28,48.19,0,8.03-7.11,14.06-23.95,14.06-13.29,0-27.04-4.94-35.7-11.89l-6.96,15.6c8.96,7.73,25.81,12.98,42.65,12.98Z"/>
  </g>
  <g id="Layer_35" data-name="Layer 35">
    <g>
      <path class="cls-5" d="M2386.01,1469.76s-11.61,13.73,42.89,30.21c54.51,16.47,614.48,9.2,726.28-7.24,111.8-16.44,232.74-141.91,236.89-256.43,4.15-114.52,7.95-226.73-29.95-266.85-37.89-40.12-86.27-57.91-110.72-61.07-24.45-3.16-65.93-14.14-137.37-15.38-71.44-1.24-606.94,71.44-653.2,78.74-46.26,7.29-105.9,23.26-123.9,72.79-17.99,49.53-43.35,273.64-36.51,315.03,6.84,41.39,15.06,113.85,85.59,110.2Z"/>
      <path class="cls-13" d="M2536.15,1521.72c18.08-.9,36.18-2.44,54.21-3.84,122.58-9.48,245.69-12.03,368.56-7.62,89.27,3.2,178.91,10.06,267.72.44,39.3-4.26,79.25-12.12,112.89-32.89,53.8-33.21,62.98-88.47,68.86-146.72,5.94-58.81,9.79-117.84,11.54-176.92.86-28.98,1.74-58.12,1.05-87.11-.57-24.02,3.68-52.79-6.74-75.16-6.16-13.24-17.48-23.32-29.19-32.05-41.35-30.85-103.46-53.59-155.67-53.63,19.16,8.16,46.93,13.15,66.35,20.69,16.06,6.23,32.34,13.29,44.47,25.51,13.86,13.95,20.91,33.24,25.64,52.33,19.45,78.56,6.69,161.91-10.41,239.72-13.6,61.88-34.77,131.84-89.01,170.37-26.71,18.98-59.55,27-91.81,32.7-103.52,18.3-209.36,16.74-314.49,17.16-109.75.44-219.88,3.15-328.29,20.18-42.03,6.6-85.99-.97-127.39,6.36,2.25,19.09,41.45,26.36,57.39,28.47,24.63,3.27,49.46,3.25,74.31,2.02Z"/>
      <g class="cls-14">
        <polygon class="cls-3" points="2815.06 868.56 2439.41 1519.33 2580.28 1573.36 3004.71 868.56 2815.06 868.56"/>
        <polygon class="cls-3" points="3100.95 855.33 2759.24 1477.46 2844.38 1471.51 3166.87 855.33 3100.95 855.33"/>
      </g>
    </g>
  </g>
  <g id="Layer_37" data-name="Layer 37">
    <path class="cls-11" d="M3301.38,2112.24c7.64,84.02-40.19,78.65-80.49,78.65s-78.57,4.2-66.25-82.17c5.97-41.87,25.96-51.65,66.27-51.65s76.64,13.06,80.47,55.17Z"/>
    <path class="cls-11" d="M3140.11,2120.86c7.64,84.02-25.93,74.1-67.58,82.17-29.01,5.63-45.84,51.02-45.84-31.94,0-42.29,1.17-79.81,45.78-91.55,38.98-10.26,63.81-.8,67.63,41.32Z"/>
    <path class="cls-11" d="M3314.85,2120.91c-7.64,84.02,14.74,70.86,56.16,80.03,18.35,4.06,54.81,55.51,54.81-27.45,0-42.29,1.28-82.16-43.33-93.9-38.98-10.26-63.81-.8-67.63,41.32Z"/>
  </g>
</svg>