<svg id="Layer_1" data-name="Layer 1" xmlns="http://www.w3.org/2000/svg" xmlns:xlink="http://www.w3.org/1999/xlink" viewBox="0 0 3871.9 3871.9"><defs><style>.cls-1{fill:none;}.cls-2,.cls-7{fill:#fff;}.cls-3,.cls-8{fill:#1a1a1a;}.cls-4,.cls-5{fill:#ccc;}.cls-5,.cls-6,.cls-7,.cls-8,.cls-9{fill-rule:evenodd;}.cls-9{fill:#b3b3b3;}.cls-10{fill:#999;stroke:#000;stroke-miterlimit:9.68;stroke-width:18.39px;}.cls-11{clip-path:url(#clip-path);}.cls-12{fill:#f2f2f2;opacity:0.2;isolation:isolate;}</style><clipPath id="clip-path" transform="translate(-1951.58 -3.24)"><path class="cls-1" d="M3010.93,1083.74s8.75-103.23,66.72-122.09,575.47-83.57,575.47-83.57,125.62-17.89,163.42-1.86,147.46,46.63,142.79,116-14.55,234.47-43.21,287.61-131,96-209.3,104.91-312.27,14-412.77,25.3-175.45,36.82-226.34,23.44-83.62-63.11-82-112.26,25.21-237.46,25.21-237.46Z"/></clipPath></defs><title>zen logo02</title><g id="Layer_29" data-name="Layer 29"><rect class="cls-2" width="3871.9" height="3871.9"/></g><g id="Layer_31" data-name="Layer 31"><rect x="1031.72" y="500.03" width="1738.62" height="2798.41" rx="80.58"/></g><g id="Layer_39" data-name="Layer 39"><path class="cls-2" d="M3571.64,2389.49,3406,2645l203-34.72,7.57,138-362.37-12.46,177.17-336.11-149.57,11.13L3264,2312.91l308.05-13.36v89.93h-.43Z" transform="translate(-1951.58 -3.24)"/><path class="cls-2" d="M3646.42,2308.47l299.15-4.45-17.81,106.84-161.59-17.81,3.56,94.82,94.82-18.7,19.59,94.82L3772,2570.22l3.56,94.82,151.36-31.16,22.26,115.75L3636.62,2763l9.8-454.52Z" transform="translate(-1951.58 -3.24)"/><path class="cls-2" d="M4230.93,2645.46l-20.48-328.09,126.43-14.69,14.69,433.16-162.49,22.25-.44.45v-.45h-1.34l.89-1.78-88.58-283.57,11.57,267.55-142,22.26,9.8-454.08,159.81,8.9Z" transform="translate(-1951.58 -3.24)"/><path class="cls-2" d="M3076.09,2825.07l157.39-2.34-9.37,56.21-85-9.37,1.88,49.89,49.89-9.83,10.3,49.88-59,3.28,1.88,49.89,79.63-16.39,11.71,60.89-164.42,7,5.15-239.12Z" transform="translate(-1951.58 -3.24)"/><path class="cls-2" d="M3315.44,2829.76l-6.32,175.18,77.05-20.61,4,72.6-144.27-7,2.35-227.17,67.22,7Z" transform="translate(-1951.58 -3.24)"/><path class="cls-2" d="M3405.83,2825.07l157.39-2.34-9.37,56.21-85-9.37,1.88,49.89,49.89-9.83,10.31,49.88-59,3.28,1.88,49.89,79.63-16.39,11.71,60.89-164.41,7,5.14-239.12Z" transform="translate(-1951.58 -3.24)"/><path class="cls-2" d="M3582.88,3054.83l-8.42-227.17,37.7-4.69c7.49-.94,11.48-2.34,19-2.34,13.34,0,21.07,1.17,34.42,1.88l68.85,3.74,31.16,55-7.49,52.46-107,60.43,5.86,51.52-74,9.14Zm63.24-104.23v-.71l58.08-43.09L3693,2871.2l-56.21-2.57,9.37,82Z" transform="translate(-1951.58 -3.24)"/><path class="cls-2" d="M3781.24,3064l-5.14-238.88,74.71,11.71-4.22,116.16,48-7.73-10.77-120.15h72.36l11,225.54-61.83,13.34-6.8-75.4-53.4,2.8-2.11,59.26-61.83,13.34Z" transform="translate(-1951.58 -3.24)"/><path class="cls-2" d="M3976.57,3035.38l89.22-211.71c13.11.46,30.45,0,43.1,1.4,11.24,1.41,26.7,5.62,38.17,8l74.48,209.37-79.16,7.49-11-48.72-61.6-10.07-18.5,68.15-74.72-23.89Zm103-81,41.69,2.11L4102.1,2871l-22.48,83.37Z" transform="translate(-1951.58 -3.24)"/><path class="cls-2" d="M4368.61,3002.36l-10.77-172.6,66.51-7.74,7.74,227.88-85.49,11.71-.23.23v-.23h-.7l.46-.94-46.61-149.19,6.09,140.76L4230.9,3064l5.15-238.88,84.08,4.69,48.47,172.6Z" transform="translate(-1951.58 -3.24)"/><path class="cls-2" d="M4440.26,2820.39l173.78,7-9.37,51.53-47.3-3.28,6.33,176.58L4489,3064l4.22-192.74-52.93-3.52v-47.31Z" transform="translate(-1951.58 -3.24)"/><path d="M4622.16,1771.34c-12.51,98.77-9.81,220.62,48.58,304.91a222,222,0,0,0,46.4,48.83c3.34,2.54,7.3,5.6,10.86,7.79,51.69,32.51,118,5,167.29-21a627.49,627.49,0,0,0,55.82-34.23l9.1,8.85c-4.52,6.43-9.25,12.29-14.31,18.22-25.48,29.51-55.74,55.24-90.18,74-59.49,32-123.91,36.27-180.57-5.65-49.93-34.67-86.12-87-105.85-144.05-28.48-81.49-29.41-175.38-11.52-259.12.84-4.12,2-8.2,3-12.26l61.39,13.72Z" transform="translate(-1951.58 -3.24)"/><path class="cls-3" d="M4990.5,2024.44s-142.22,65-77.26,109.07,136.33-133.36,136.33-133.36Z" transform="translate(-1951.58 -3.24)"/></g><g id="Layer_26" data-name="Layer 26"><path class="cls-3" d="M3035.88,1646.2a164.72,164.72,0,0,1-42,17.57,142.76,142.76,0,0,1-71.85.6,127.87,127.87,0,0,1-62.13-36.94c-15.54-16.67-27.63-38.36-34.6-65-22.42-85.75-102.63-113.35-102.85-113.44l-2.66-1.13c-45.44-23-73.09-62.1-84.23-106.15a191.32,191.32,0,0,1-4.23-69.28,203.61,203.61,0,0,1,20.46-67.56c23.6-46.6,65.83-85.13,124.84-100.07,23.72-6,49.2-9.28,75.27-12.62,50.24-6.45,102.91-13.2,146.31-43.44,52.83-36.81,97.74-77.79,136.35-113,55.76-50.88,161.09-133.33,228.25-165.74a434,434,0,0,1,52.58-21.25s111-30,200.76-26c101.11,4.55,180.63,61.54,243.12,86.44s200.47,115.2,319.49,109.13c88.63-4.52,183.68-9.86,263.79,10,84.71,21,152.67,64.94,179.73,145.71,65.6,195.87-50,267.83-170.9,343.11-43.43,27-87.63,54.56-121.65,88.27-126.4,125.22-208.21,111.36-246.48,91.12-35.77,54.42-87.81,99.64-158.71,131.2-72.64,32.32-165.14,50.23-280.28,48.76-219.22,298-549.78,355.48-550.92,355.69l-12.48,2.27-8.89-8.89c-57.8-57.79-52.39-126.29-52.38-126.48l1-12.19,10.51-6.43c98.9-60.54,162.75-139.12,203.61-220-120-15.22-176.51-56.82-198.9-114.3" transform="translate(-1951.58 -3.24)"/></g><g id="Layer_25" data-name="Layer 25"><path class="cls-2" d="M4089,1104.42c37.61,93,58.37,189.4,56.15,279.08-1.51,61.22-13.68,119.37-38.39,171.36,23.47,12.44,82.15,22.21,189-83.67,38.1-37.75,84.54-66.67,130.17-95.07,104.37-65,204.15-127.11,150.67-286.78a149,149,0,0,0-14-30.31c-86.05-79.64-262.5-21.83-387.09,19-32.53,10.67-61.7,20.23-86.47,26.38" transform="translate(-1951.58 -3.24)"/></g><g id="Layer_24" data-name="Layer 24"><path class="cls-2" d="M3091.39,1153.22c-28.65,7.59-70,12.06-127.54,5.17-110.69-13.25-180-3.32-192.73-1.21-35.21,13.63-60.9,39.26-76.19,69.44a155.19,155.19,0,0,0-15.55,51.48,143.09,143.09,0,0,0,3.1,51.89c7.78,30.76,26.84,58,58,74.21,13,5,104.57,43.11,131.52,146.13,4.82,18.41,12.94,33.14,23.26,44.22a80.07,80.07,0,0,0,38.87,23.15c15,3.87,31.36,3.65,47.66-.6a119.88,119.88,0,0,0,42.75-21.42,317.52,317.52,0,0,1,.12-53.48c3.05-39,12-80.31,21.19-122.85,4.85-22.45,9.79-45.28,13.49-65.45,9.21-50.28,13.49-84.14,17-112.21,4.05-32.08,7.18-57,15-88.46" transform="translate(-1951.58 -3.24)"/></g><g id="Layer_23" data-name="Layer 23"><path class="cls-4" d="M2983.3,1111.83c82.63,7.75,115.65-9.57,125.45-16.68,6-17.77,13.41-38,22.52-61.64q9.87-25.59,21.41-48.92c-36.45,33.13-78.17,69.95-126.83,103.85a233.13,233.13,0,0,1-42.56,23.4" transform="translate(-1951.58 -3.24)"/></g><g id="Layer_22" data-name="Layer 22"><path class="cls-2" d="M3687.88,1487.53c18.62,45.78,93.43,83.85,141.5,72.51-18.75,28.93-50.86,37.6-80.47,32.07a915.93,915.93,0,0,1-71.41,136c92.64-2,167.76-17.91,227.41-44.45,66.29-29.5,113.45-72.24,144.3-123.56,31.12-51.75,46.07-112.61,47.68-177.75,2.17-88-19.83-183.6-59.2-275.58-69.06-8.31-151.13-56-163.58-114.57.23.3,99,90.78,201.53,65.8,22.38-5.45,51.87-15.12,84.83-25.92,75.7-24.81,169-55.37,255.22-60.38-70.91-14.73-154.19-13.32-232.17-5.4-149.44,15.19-232.9-36.23-321.25-90.65-47.61-29.33-96.77-59.61-158.87-79.12-107.38-33.73-221.7-30.34-319.56,16.89-87.44,42.19-162.18,119.73-207.58,237.47-40.45,104.94-44.63,138-52,196.82-3.66,29-8.07,63.89-17.41,114.86-4.45,24.28-9.11,45.78-13.68,67-8.86,41-17.46,80.67-20.25,116.24-6.69,85.48,23.33,151.78,182.81,168.45,72.17-179.84,42.65-356,42.52-356.83,106.41,163.46.06,508.92-230,656.74,1.39,14.54,7.18,41.32,29.53,67.92,73.27-16.41,441.91-117.1,607.47-510.78-22-19.13-32.94-49-17.32-83.76" transform="translate(-1951.58 -3.24)"/></g><g id="Layer_20" data-name="Layer 20"><path class="cls-5" d="M4562.51,1059c-86.05-79.64-262.5-21.83-387.09,19-32.53,10.66-61.7,20.23-86.47,26.38,37.61,93,58.37,189.4,56.15,279.08-1.51,61.22-13.69,119.37-38.39,171.36,13.22,7,37.62,13.17,75.53-1.73,54.08-117.75,29-195,51.32-340.5,28.73-187.54,328.95-153.6,328.95-153.6" transform="translate(-1951.58 -3.24)"/></g><g id="Layer_19" data-name="Layer 19"><path class="cls-5" d="M2963.85,1158.38c-110.69-13.25-180-3.32-192.73-1.21,0,0,208.59,22.17,210.1,179.47s8,209.5,43.34,259a317.52,317.52,0,0,1,.12-53.48c3.05-39,12-80.31,21.19-122.85,4.85-22.44,9.79-45.28,13.49-65.45,9.21-50.28,13.49-84.14,17-112.21,4.05-32.08,7.18-57,15-88.45-28.65,7.58-70,12-127.54,5.16" transform="translate(-1951.58 -3.24)"/></g><g id="Layer_18" data-name="Layer 18"><path class="cls-5" d="M4037.69,1106.79c-69.06-8.31-151.13-56-163.58-114.57,9.85,142.27,188,167.38,169.15,380.87-13.3,150-115.67,309-294.35,219a915.93,915.93,0,0,1-71.41,136c92.64-2,167.76-17.91,227.41-44.45,66.29-29.5,113.45-72.24,144.3-123.56,31.12-51.75,46.07-112.61,47.68-177.75,2.17-88-19.83-183.6-59.2-275.58" transform="translate(-1951.58 -3.24)"/></g><g id="Layer_17" data-name="Layer 17"><path class="cls-5" d="M3093.13,1429.54c-8.85,41-17.45,80.67-20.24,116.24-6.69,85.48,23.33,151.79,182.81,168.45,72.17-179.84,42.65-356,42.52-356.83,6.17,220-152.06,244-167.36,139.55-12-82,27.2-224.29,12.08-349.54-10.92,38.46-14.22,64.64-18.72,100.3-3.66,29-8.07,63.89-17.41,114.86-4.45,24.28-9.11,45.78-13.68,67" transform="translate(-1951.58 -3.24)"/></g><g id="Layer_16" data-name="Layer 16"><path class="cls-5" d="M3068.19,2014.15c1.39,14.54,7.18,41.32,29.53,67.92,73.27-16.41,441.91-117.1,607.47-510.78-215.28,357.19-637,442.86-637,442.86" transform="translate(-1951.58 -3.24)"/></g><g id="Layer_15" data-name="Layer 15"><path class="cls-6" d="M3240.52,1299.82c33,0,59.74,34.88,59.74,77.89s-26.75,77.9-59.74,77.9-59.74-34.88-59.74-77.9,26.75-77.89,59.74-77.89" transform="translate(-1951.58 -3.24)"/></g><g id="Layer_14" data-name="Layer 14"><path class="cls-6" d="M3667,1277.14c33,0,59.74,34.87,59.74,77.89s-26.75,77.89-59.74,77.89-59.75-34.87-59.75-77.89,26.75-77.89,59.75-77.89" transform="translate(-1951.58 -3.24)"/></g><g id="Layer_13" data-name="Layer 13"><path class="cls-7" d="M3653.42,1299.54c14.22,0,25.75,15,25.75,33.56s-11.53,33.57-25.75,33.57-25.75-15-25.75-33.57,11.53-33.56,25.75-33.56" transform="translate(-1951.58 -3.24)"/></g><g id="Layer_36" data-name="Layer 36"><path class="cls-3" d="M4136,2109.69c0,137.85,35.44,242.32-198.49,240.28-327.13-2.85-310.68-17.93-310.53-222.35.06-91.85,40.58-266.64,119.13-355,39.33-44.26,132.83-57.38,191.4-57.38s124.63,7.51,160.05,50.2c70.69,85.21,38.43,252.46,38.43,344.28Z" transform="translate(-1951.58 -3.24)"/><path class="cls-4" d="M4097,2097.72c0,116.44,29.93,204.7-167.67,203-276.34-2.41-262.45-15.15-262.32-187.83.06-77.6,34.29-225.25,100.65-299.92,33.22-37.38,112.2-48.47,161.68-48.47s105.29,6.33,135.21,42.41c59.71,72,32.47,213.27,32.47,290.83Z" transform="translate(-1951.58 -3.24)"/><path class="cls-8" d="M4097,2225.38c0,75.34-92.15,95.76-209.77,95.76s-216.17-20.41-216.17-95.76c0-41.62,95.35-75.34,213-75.34s213,33.73,213,75.34Z" transform="translate(-1951.58 -3.24)"/><path class="cls-9" d="M4003.61,1772s50.17,228.15,0,391c0,0,91.31,39.23,93.42,62.37,3.4,37.38,13.4-295.86.57-340.29S4100.21,1803.74,4003.61,1772Z" transform="translate(-1951.58 -3.24)"/></g><g id="Layer_35" data-name="Layer 35"><path d="M3068.89,1425.6s-11.23,13.29,41.51,29.23,594.66,8.91,702.86-7,225.23-137.34,229.25-248.16,7.69-219.42-29-258.25-83.48-56-107.15-59.1-63.8-13.68-132.94-14.88-587.36,69.13-632.13,76.2-102.49,22.51-119.9,70.44-42,264.82-35.34,304.87S3000.64,1429.13,3068.89,1425.6Z" transform="translate(-1951.58 -3.24)"/><path class="cls-10" d="M3214.19,1475.88c17.5-.87,35-2.36,52.46-3.71a3156.12,3156.12,0,0,1,356.68-7.38c86.39,3.1,173.14,9.74,259.08.43,38-4.12,76.7-11.73,109.25-31.83,52.07-32.14,61-85.62,66.64-142q8.63-85.37,11.17-171.21c.83-28,1.68-56.25,1-84.3-.56-23.25,3.56-51.09-6.53-72.74-6-12.81-16.91-22.57-28.25-31-40-29.85-100.12-51.86-150.65-51.9,18.55,7.9,45.42,12.73,64.21,20,15.55,6,31.3,12.87,43,24.69,13.41,13.5,20.24,32.17,24.81,50.64,18.83,76,6.48,156.69-10.07,232-13.16,59.89-33.65,127.59-86.14,164.88-25.85,18.37-57.63,26.13-88.85,31.64-100.18,17.71-202.61,16.2-304.35,16.61-106.21.43-212.79,3-317.7,19.53-40.67,6.39-83.22-.94-123.28,6.16,2.18,18.47,40.11,25.51,55.54,27.55,23.83,3.16,47.86,3.14,71.91,2Z" transform="translate(-1951.58 -3.24)"/><g class="cls-11"><polygon class="cls-12" points="1532.53 840.55 1168.99 1470.33 1305.32 1522.62 1716.06 840.55 1532.53 840.55"/><polygon class="cls-12" points="1809.2 827.75 1478.51 1429.81 1560.9 1424.06 1872.99 827.75 1809.2 827.75"/></g></g><g id="Layer_37" data-name="Layer 37"><path class="cls-7" d="M3954.74,2047.36c7.4,81.31-38.89,76.11-77.89,76.11s-76,4.07-64.12-79.52c5.78-40.52,25.13-50,64.14-50S3951,2006.61,3954.74,2047.36Z" transform="translate(-1951.58 -3.24)"/><path class="cls-7" d="M3798.67,2055.7c7.4,81.31-25.09,71.71-65.4,79.52-28.07,5.45-44.36,49.38-44.36-30.91,0-40.93,1.13-77.24,44.3-88.6,37.73-9.93,61.76-.77,65.45,40Z" transform="translate(-1951.58 -3.24)"/><path class="cls-7" d="M3967.78,2055.75c-7.4,81.31,14.26,68.57,54.35,77.45,17.76,3.93,53,53.72,53-26.57,0-40.92,1.24-79.51-41.93-90.87-37.73-9.93-61.76-.77-65.45,40Z" transform="translate(-1951.58 -3.24)"/></g></svg>